# xmcd CD database file
# Copyright (C) 1995 Ti Kan
#
# Track frame offsets:
#	150
#	1675
#	14307
#	30115
#	45117
#	53770
#	65807
#	77075
#	89220
#	105500
#	117380
#	131347
#	135902
#	143617
#	153845
#	172510
#	181505
#
# Disc length: 2565 seconds
#
# Revision: 1
# Processed by: cddbd v1.4b41PL1 Copyright (c) Steve Scherf et al.
# Submitted via: xmcd 1.4
#
DISCID=b70a0311
DTITLE=Street Dreams
DYEAR=1900
DGENRE=
TTITLE0=CTA
TTITLE1=Stand By Me  - 78 cents
TTITLE2=Sweet Home Chicago - Chicago Brother and Sister Blues Band
TTITLE3=El Condor Pasa - Ch'uwa Yacu
TTITLE4=I Can See Clearly Now - Fritz Legros
TTITLE5=Cupid - 78 cents
TTITLE6=I Got My Mojo Workin' - Chicago Brother and Sister Blues Band
TTITLE7=Djembe Jam - John Smith
TTITLE8=Aniiversary Waltz - Yuan Wei and Bogdan Pokrzywnicki
TTITLE9=Ch'uwa Yacu (Clear Water) - Ch'uwa Yacu
TTITLE10=Route 66 - Chicago Brother and Sister Blues Band
TTITLE11=Yardbird Suite - Michael Barber
TTITLE12=Jamaican Drums - Yambe and the hartisan Brothers
TTITLE13=Wonderful - 78 cents
TTITLE14=Jesus, My Brother - Fritz Legros
TTITLE15=Lift Every Voice - Flow
TTITLE16=Amazing Grace - Samson Reeves, Jr.
EXTD=
EXTT0=
EXTT1=
EXTT2=
EXTT3=
EXTT4=
EXTT5=
EXTT6=
EXTT7=
EXTT8=
EXTT9=
EXTT10=
EXTT11=
EXTT12=
EXTT13=
EXTT14=
EXTT15=
EXTT16=
PLAYORDER=
